HIERARCHY
ROOT Hips
{
	OFFSET 0.0000 0.0000 0.0000
	CHANNELS 6 Xposition Yposition Zposition Zrotation Xrotation Yrotation
	JOINT Spine1
	{
		OFFSET -0.0137 5.0038 -0.0537
		CHANNELS 3 Zrotation Xrotation Yrotation
		JOINT Spine2
		{
			OFFSET -0.0000 7.1253 -0.0298
			CHANNELS 3 Zrotation Xrotation Yrotation
			JOINT Chest
			{
				OFFSET -0.0000 7.5501 -0.8160
				CHANNELS 3 Zrotation Xrotation Yrotation
				JOINT Neck1
				{
					OFFSET -0.1817 26.3113 -0.5533
					CHANNELS 3 Zrotation Xrotation Yrotation
					JOINT Neck2
					{
						OFFSET -0.0000 7.7094 2.3026
						CHANNELS 3 Zrotation Xrotation Yrotation
						JOINT Head
						{
							OFFSET -0.0000 6.1289 1.9537
							CHANNELS 3 Zrotation Xrotation Yrotation
							JOINT Jaw
							{
								OFFSET 0.0026 0.4756 3.0949
								CHANNELS 3 Zrotation Xrotation Yrotation
								End Site
								{
									OFFSET 0.0 1.0 0.0
								}
							}
							JOINT LeftEye
							{
								OFFSET 3.2064 5.3802 7.5869
								CHANNELS 3 Zrotation Xrotation Yrotation
								End Site
								{
									OFFSET 0.0 1.0 0.0
								}
							}
							JOINT RightEye
							{
								OFFSET -3.2224 5.3619 7.5582
								CHANNELS 3 Zrotation Xrotation Yrotation
								End Site
								{
									OFFSET 0.0 1.0 0.0
								}
							}
						}
					}
				}
				JOINT LeftShoulder
				{
					OFFSET 1.6217 23.2372 5.1134
					CHANNELS 3 Zrotation Xrotation Yrotation
					JOINT LeftArm
					{
						OFFSET 14.9198 0.0000 -5.5023
						CHANNELS 3 Zrotation Xrotation Yrotation
						JOINT LeftForeArm
						{
							OFFSET 28.7393 0.0000 -0.0026
							CHANNELS 3 Zrotation Xrotation Yrotation
							JOINT LeftHand
							{
								OFFSET 27.0940 -0.0000 0.0026
								CHANNELS 3 Zrotation Xrotation Yrotation
								JOINT LeftHandThumbEnd
								{
									OFFSET 12.2686 -3.2202 4.8331
									CHANNELS 3 Zrotation Xrotation Yrotation
									End Site
									{
										OFFSET 0.0 1.0 0.0
									}
								}
								JOINT LeftHandMiddleEnd
								{
									OFFSET 19.0120 -0.3129 -0.0340
									CHANNELS 3 Zrotation Xrotation Yrotation
									End Site
									{
										OFFSET 0.0 1.0 0.0
									}
								}
							}
						}
					}
				}
				JOINT RightShoulder
				{
					OFFSET -1.3801 23.1803 5.2142
					CHANNELS 3 Zrotation Xrotation Yrotation
					JOINT RightArm
					{
						OFFSET -15.0372 0.0000 -5.5456
						CHANNELS 3 Zrotation Xrotation Yrotation
						JOINT RightForeArm
						{
							OFFSET -28.7366 0.0000 -0.0026
							CHANNELS 3 Zrotation Xrotation Yrotation
							JOINT RightHand
							{
								OFFSET -27.1336 -0.0000 0.0026
								CHANNELS 3 Zrotation Xrotation Yrotation
								JOINT RightHandThumbEnd
								{
									OFFSET -12.2642 -3.2115 4.8040
									CHANNELS 3 Zrotation Xrotation Yrotation
									End Site
									{
										OFFSET 0.0 1.0 0.0
									}
								}
								JOINT RightHandMiddleEnd
								{
									OFFSET -19.0006 -0.3066 -0.0316
									CHANNELS 3 Zrotation Xrotation Yrotation
									End Site
									{
										OFFSET 0.0 1.0 0.0
									}
								}
							}
						}
					}
				}
			}
		}
	}
	JOINT LeftLeg
	{
		OFFSET 10.0432 -8.4345 2.5957
		CHANNELS 3 Zrotation Xrotation Yrotation
		JOINT LeftShin
		{
			OFFSET -0.0000 -43.2218 -0.8029
			CHANNELS 3 Zrotation Xrotation Yrotation
			JOINT LeftFoot
			{
				OFFSET 0.0000 -42.1551 -3.4815
				CHANNELS 3 Zrotation Xrotation Yrotation
				JOINT LeftToeBase
				{
					OFFSET 0.0000 -5.0595 13.2315
					CHANNELS 3 Zrotation Xrotation Yrotation
					End Site
					{
						OFFSET 0.0 1.0 0.0
					}
				}
			}
		}
	}
	JOINT RightLeg
	{
		OFFSET -10.0473 -8.2953 2.6203
		CHANNELS 3 Zrotation Xrotation Yrotation
		JOINT RightShin
		{
			OFFSET 0.0000 -43.3622 -0.8056
			CHANNELS 3 Zrotation Xrotation Yrotation
			JOINT RightFoot
			{
				OFFSET 0.0000 -42.1174 -3.4784
				CHANNELS 3 Zrotation Xrotation Yrotation
				JOINT RightToeBase
				{
					OFFSET -0.0000 -5.0796 13.2842
					CHANNELS 3 Zrotation Xrotation Yrotation
					End Site
					{
						OFFSET 0.0 1.0 0.0
					}
				}
			}
		}
	}
}
MOTION
Frames: 15
Frame Time: 0.033333
-5.5856 98.2944 2.0777 1.7178 3.2549 -0.5462 0.2626 1.2676 -0.1494 -0.2792 -4.6501 -0.8506 1.3917 13.6702 -2.7421 4.9712 26.4401 1.6369 -0.9155 -3.7871 0.7286 -0.2556 -9.0405 -0.7733 -0.0262 -0.0353 0.0907 0.6875 -10.5203 -3.7701 -0.7351 -10.5697 3.9730 -10.6823 15.4576 -4.3912 -60.0252 14.2361 -4.5719 0.8423 -0.5013 -97.5060 13.3943 25.2219 20.9027 -15.4942 10.8660 16.2053 -59.6001 1.4707 1.9682 23.2506 15.2230 10.9317 41.8064 4.4743 -1.5227 0.2692 2.0404 85.1328 -13.3086 42.3459 -53.1456 15.6953 7.4453 -15.6392 50.4001 -3.4886 -5.3042 10.1788 -10.3365 5.1790 -0.1810 10.4131 -0.4885 -14.3887 -5.1834 -12.1881 1.6666 -1.7524 -1.9864 -10.7114 -14.3946 -16.6364 0.2412 18.4241 0.5635 10.3432 -9.3746 8.5225 -1.4517 -0.8653 1.1027
-5.7416 98.3142 2.1187 1.6811 3.4546 -0.4253 0.3762 1.3161 -0.1918 -0.2425 -4.6544 -0.8028 1.6023 13.7343 -2.7967 5.2327 26.3963 1.6389 -0.9482 -3.8036 0.5677 -0.3235 -8.9131 -0.8774 -0.0261 -0.0440 0.0784 0.6899 -10.5308 -3.7888 -0.7374 -10.5800 3.9667 -10.5840 15.4900 -4.4005 -60.1165 14.1913 -5.0026 0.8930 -0.6318 -97.3249 13.2736 25.3452 20.4683 -15.4077 10.8827 16.1469 -59.7296 1.4566 1.8958 23.4344 15.2135 11.1310 41.2833 3.9465 -2.1105 0.3921 1.9413 84.8637 -12.9304 41.3486 -52.0703 15.5929 7.4111 -15.5344 50.3109 -3.4702 -5.2729 10.3120 -10.4921 5.0734 -0.2065 10.2321 -0.5009 -14.5813 -5.1009 -12.2397 1.6652 -1.7148 -2.0056 -10.5164 -14.6016 -16.8099 0.2331 18.5512 0.5423 10.2764 -9.4353 8.4849 -1.4547 -0.8092 1.0734
-5.9000 98.3078 2.1049 1.6711 3.6695 -0.2983 0.4963 1.3482 -0.2172 -0.2135 -4.6397 -0.7823 1.8528 13.8290 -2.7898 5.4630 26.4519 1.6432 -1.0192 -3.8328 0.4022 -0.4095 -8.7945 -0.9605 -0.0242 -0.0461 0.0692 0.6874 -10.5421 -3.8024 -0.7301 -10.5854 3.9596 -10.5225 15.4861 -4.3906 -60.1568 14.1494 -5.3571 0.8940 -0.7732 -97.2543 13.0154 25.2438 20.1110 -15.3836 10.8703 16.1308 -59.7513 1.4604 1.9436 23.6729 15.1192 11.3796 40.6555 3.4482 -2.7289 0.5144 1.8533 84.7064 -12.3972 40.3844 -51.0474 15.4923 7.3409 -15.4115 50.1084 -3.4867 -5.2650 10.4025 -10.6930 4.9753 -0.2172 10.0998 -0.5115 -14.7346 -5.0098 -12.3154 1.6659 -1.6757 -2.0233 -10.3815 -14.8724 -17.0886 0.2337 18.6806 0.5339 10.2757 -9.4389 8.5417 -1.4556 -0.7264 1.0586
-6.0108 98.3134 2.1215 1.6441 3.8447 -0.2190 0.6322 1.4172 -0.2181 -0.1799 -4.6312 -0.8138 2.1301 13.9432 -2.7099 5.5749 26.5984 1.6094 -1.0683 -3.8551 0.3146 -0.5166 -8.7791 -0.9809 -0.0206 -0.0496 0.0668 0.6820 -10.5600 -3.8073 -0.7170 -10.6018 3.9580 -10.4820 15.4932 -4.3487 -60.2179 14.0800 -5.6499 0.8749 -0.8486 -97.1998 12.7857 25.1705 19.8137 -15.3756 10.8456 16.0983 -59.7329 1.4807 2.0000 23.8673 15.0404 11.6793 40.0488 2.9712 -3.2390 0.5960 1.8127 84.7149 -11.8807 39.8282 -50.2800 15.3943 7.3176 -15.3383 49.9310 -3.5081 -5.2486 10.4585 -10.8841 4.8987 -0.2148 10.0491 -0.5151 -14.7878 -4.9209 -12.3032 1.6639 -1.6394 -2.0252 -10.2614 -15.0719 -17.2984 0.2275 18.7320 0.5131 10.3056 -9.3927 8.6271 -1.4526 -0.6737 1.0482
-6.0868 98.3224 2.1135 1.6139 3.9993 -0.1783 0.7650 1.5044 -0.2120 -0.1356 -4.6201 -0.8467 2.3987 14.0763 -2.6111 5.6361 26.7631 1.6005 -1.0863 -3.8651 0.2492 -0.5893 -8.8034 -0.9975 -0.0212 -0.0471 0.0759 0.6758 -10.5715 -3.7961 -0.7109 -10.6076 3.9634 -10.4713 15.5075 -4.2854 -60.2666 13.9929 -5.9197 0.9013 -0.8808 -97.1971 12.6507 25.2500 19.6283 -15.3689 10.8552 16.0885 -59.7180 1.4988 2.0128 23.9977 14.9453 11.9885 39.5214 2.5302 -3.6123 0.6427 1.7913 84.8952 -11.3370 39.7038 -49.7449 15.3310 7.3053 -15.2808 49.8597 -3.5219 -5.2160 10.4851 -11.0555 4.8131 -0.2125 10.0322 -0.5133 -14.7891 -4.8301 -12.2323 1.6619 -1.5845 -2.0183 -10.1579 -15.2384 -17.4715 0.2232 18.7422 0.5036 10.3693 -9.3160 8.7146 -1.4482 -0.6221 1.0429
-6.1089 98.3232 2.1066 1.5855 4.1390 -0.1388 0.8889 1.5940 -0.2281 -0.0937 -4.5701 -0.8400 2.6510 14.1823 -2.5383 5.6559 26.8884 1.5621 -1.0847 -3.8755 0.2532 -0.6635 -8.8570 -0.9790 -0.0210 -0.0444 0.0831 0.6691 -10.5669 -3.7867 -0.7030 -10.6005 3.9662 -10.4832 15.4721 -4.1906 -60.2879 13.9326 -6.1458 0.8749 -0.8887 -97.1969 12.5573 25.3219 19.4987 -15.3608 10.8530 16.0731 -59.6612 1.5167 2.0034 24.0934 14.8550 12.2863 39.0934 2.1186 -3.8310 0.6272 1.8261 85.0944 -10.7653 39.7938 -49.3051 15.3081 7.2969 -15.2473 49.8455 -3.5497 -5.1775 10.4972 -11.2319 4.7295 -0.2089 10.0493 -0.4962 -14.7768 -4.7517 -12.1783 1.6609 -1.5195 -2.0119 -10.0938 -15.3872 -17.6178 0.2299 18.7101 0.5041 10.4398 -9.1922 8.7912 -1.4451 -0.5863 1.0378
-6.0844 98.3265 2.1259 1.5707 4.2793 -0.1219 0.9977 1.6945 -0.2205 -0.0499 -4.5281 -0.8598 2.8748 14.2868 -2.4554 5.6788 27.0083 1.5307 -1.0777 -3.8813 0.2757 -0.7430 -8.9005 -0.8954 -0.0196 -0.0400 0.0862 0.6679 -10.5722 -3.7825 -0.6989 -10.6049 3.9675 -10.5001 15.4515 -4.1171 -60.3071 13.8842 -6.3932 0.9069 -0.8209 -97.2075 12.3840 25.2175 19.3360 -15.3518 10.8741 16.0677 -59.6586 1.5421 1.9585 24.1582 14.7705 12.6150 38.7500 1.7637 -3.9710 0.6286 1.7939 85.3283 -10.3060 39.9928 -48.9482 15.3131 7.2958 -15.2399 49.8546 -3.5651 -5.1703 10.4697 -11.4487 4.6617 -0.2102 10.1573 -0.4851 -14.7511 -4.7216 -12.0990 1.6618 -1.4786 -2.0077 -10.0586 -15.5631 -17.7331 0.2375 18.7138 0.5051 10.5013 -9.0816 8.9078 -1.4432 -0.5761 1.0261
-6.0177 98.3331 2.0956 1.5589 4.4190 -0.1010 1.0998 1.8080 -0.1989 -0.0141 -4.4776 -0.8698 3.0842 14.3910 -2.3855 5.7480 27.1085 1.4810 -1.0808 -3.8900 0.3599 -0.8345 -8.9770 -0.7730 -0.0208 -0.0329 0.0895 0.6635 -10.5733 -3.7776 -0.6967 -10.6038 3.9708 -10.5176 15.4108 -4.0632 -60.2846 13.8212 -6.6453 0.9384 -0.7540 -97.2105 12.1624 24.9477 19.1311 -15.3099 10.8768 16.0527 -59.6151 1.5638 1.9341 24.2217 14.6879 12.9417 38.4720 1.4631 -3.9826 0.6311 1.7719 85.5370 -9.8326 40.2028 -48.6393 15.3294 7.2978 -15.2131 49.8817 -3.5437 -5.1564 10.4309 -11.7086 4.6275 -0.2162 10.3365 -0.4853 -14.7375 -4.6933 -11.9826 1.6613 -1.4299 -2.0162 -10.0528 -15.7335 -17.8351 0.2369 18.6887 0.4891 10.5557 -8.9389 9.0218 -1.4411 -0.5952 1.0131
-5.9261 98.3398 2.0798 1.5486 4.5416 -0.0328 1.1825 1.9283 -0.2133 0.0168 -4.4192 -0.8424 3.2771 14.4969 -2.3341 5.8542 27.2071 1.3983 -1.0513 -3.8992 0.4789 -0.9429 -9.0562 -0.6086 -0.0195 -0.0272 0.0875 0.6620 -10.5817 -3.7805 -0.6919 -10.6118 3.9683 -10.4947 15.4045 -4.0349 -60.2279 13.6357 -6.8876 0.9300 -0.7093 -97.1769 11.9945 24.6035 18.8580 -15.2919 10.8886 16.0727 -59.5814 1.5700 1.9556 24.2311 14.6025 13.2126 38.3394 1.2137 -3.8565 0.5946 1.7630 85.6660 -9.2189 40.3464 -48.2280 15.3424 7.2961 -15.1756 49.9250 -3.5206 -5.1428 10.3651 -11.9768 4.5501 -0.2136 10.5513 -0.4820 -14.7024 -4.7099 -11.8469 1.6594 -1.3644 -2.0157 -10.0619 -15.8835 -17.9441 0.2449 18.6328 0.4956 10.5955 -8.7950 9.0853 -1.4385 -0.6145 0.9974
-5.7953 98.3745 2.0381 1.5527 4.6478 0.0465 1.2284 2.0620 -0.2261 0.0492 -4.3605 -0.8401 3.4395 14.6091 -2.2661 5.9711 27.3181 1.2972 -0.9976 -3.9030 0.6582 -1.0159 -9.1448 -0.4389 -0.0152 -0.0275 0.0833 0.6615 -10.5898 -3.7839 -0.6824 -10.6182 3.9615 -10.4366 15.4001 -4.0067 -60.1523 13.3950 -7.1072 0.9358 -0.6642 -97.1690 11.8761 24.3095 18.6244 -15.2799 10.8864 16.0802 -59.5313 1.5685 1.9844 24.2254 14.5336 13.4448 38.2723 0.9885 -3.6382 0.6080 1.7586 85.7496 -8.6309 40.5297 -47.8163 15.3503 7.2994 -15.1356 50.0045 -3.4890 -5.1221 10.2521 -12.2365 4.4852 -0.2065 10.7790 -0.4776 -14.6207 -4.7193 -11.7360 1.6593 -1.3070 -2.0092 -10.1097 -16.0054 -18.0346 0.2483 18.5448 0.5058 10.6788 -8.6366 9.1206 -1.4367 -0.6137 0.9939
-5.6381 98.3862 1.9806 1.5732 4.7477 0.1235 1.2477 2.2066 -0.2048 0.0740 -4.2983 -0.8702 3.5656 14.7279 -2.1695 6.1316 27.4534 1.1635 -0.9660 -3.8994 0.9024 -1.0532 -9.2473 -0.2920 -0.0076 -0.0301 0.0785 0.6645 -10.6025 -3.7917 -0.6695 -10.6270 3.9579 -10.3281 15.4057 -3.9978 -60.0346 13.0554 -7.2620 0.9022 -0.6360 -97.1338 11.8287 24.0410 18.4603 -15.2897 10.8963 16.0958 -59.4932 1.5689 1.9915 24.2316 14.4893 13.6490 38.2515 0.8164 -3.3383 0.6387 1.7898 85.8267 -8.0592 40.8217 -47.5030 15.3373 7.3097 -15.1223 50.0655 -3.4536 -5.1178 10.1063 -12.5304 4.4370 -0.2069 11.0681 -0.4740 -14.5001 -4.7052 -11.6397 1.6598 -1.2687 -2.0025 -10.1987 -16.1182 -18.0857 0.2454 18.4183 0.5035 10.8096 -8.4464 9.1470 -1.4368 -0.5910 1.0075
-5.4537 98.4227 1.8964 1.6165 4.8527 0.2284 1.2322 2.3395 -0.1911 0.0843 -4.2371 -0.8721 3.6581 14.8646 -2.0917 6.3018 27.6182 1.0345 -0.9237 -3.9037 1.1080 -1.0610 -9.3613 -0.1114 -0.0019 -0.0319 0.0750 0.6668 -10.6232 -3.8011 -0.6605 -10.6437 3.9576 -10.1539 15.4282 -4.0071 -59.9286 12.6570 -7.4644 0.9451 -0.5919 -97.0956 11.8551 23.7624 18.4265 -15.2939 10.9172 16.1142 -59.5499 1.5882 1.9938 24.1920 14.4834 13.8374 38.3395 0.6575 -3.0165 0.6737 1.7594 85.9055 -7.6208 41.2425 -47.3653 15.3186 7.3105 -15.1236 50.1186 -3.4466 -5.1105 9.9168 -12.8507 4.3597 -0.2032 11.3949 -0.4608 -14.3540 -4.6869 -11.5530 1.6595 -1.2666 -2.0027 -10.3121 -16.2419 -18.1453 0.2439 18.2827 0.5130 10.9767 -8.2501 9.1646 -1.4355 -0.5958 1.0133
-5.2386 98.4312 1.8367 1.6668 4.9470 0.3269 1.1838 2.4521 -0.1713 0.0862 -4.1687 -0.8646 3.7134 14.9746 -2.0244 6.4809 27.7811 0.9283 -0.8864 -3.9138 1.2698 -1.0317 -9.4731 0.0660 0.0018 -0.0355 0.0732 0.6651 -10.6326 -3.8064 -0.6508 -10.6470 3.9576 -9.9611 15.4074 -4.0081 -59.8114 12.2509 -7.5824 0.9319 -0.5869 -96.9930 12.0257 23.6304 18.5402 -15.3046 10.9434 16.1338 -59.6014 1.6057 1.9919 24.1507 14.4740 13.9834 38.4645 0.6122 -2.6590 0.6475 1.7851 85.8759 -7.2106 41.6936 -47.3416 15.3259 7.2761 -15.1393 50.1248 -3.4441 -5.1172 9.7127 -13.1585 4.2727 -0.1974 11.7496 -0.4441 -14.2155 -4.6879 -11.4494 1.6589 -1.2893 -2.0152 -10.4632 -16.3521 -18.1860 0.2398 18.1325 0.5172 11.1651 -8.0506 9.1508 -1.4359 -0.6236 1.0193
-5.0183 98.4327 1.8024 1.7184 5.0156 0.4140 1.1028 2.5539 -0.1402 0.0746 -4.1237 -0.8648 3.7155 15.0972 -1.9543 6.6557 27.9779 0.8602 -0.8463 -3.9207 1.4054 -0.9549 -9.6023 0.2387 0.0008 -0.0413 0.0727 0.6602 -10.6398 -3.8058 -0.6483 -10.6472 3.9577 -9.7223 15.3351 -4.0269 -59.7260 11.8838 -7.5947 0.8977 -0.6609 -96.9264 12.2926 23.5706 18.8065 -15.3212 10.9420 16.1225 -59.6600 1.6150 1.9619 24.0589 14.4818 14.1130 38.7031 0.6527 -2.2987 0.5605 1.7858 85.7949 -6.9495 42.2290 -47.4343 15.3151 7.2469 -15.1614 50.0735 -3.4425 -5.1457 9.5047 -13.4536 4.1973 -0.1982 12.1568 -0.4326 -14.0893 -4.7481 -11.3647 1.6579 -1.2887 -2.0398 -10.6412 -16.4396 -18.1896 0.2371 18.0051 0.5314 11.3541 -7.8924 9.1043 -1.4341 -0.6679 1.0189
-4.7794 98.4181 1.7982 1.7454 5.0591 0.4696 0.9937 2.6450 -0.1224 0.0513 -4.0951 -0.8508 3.6604 15.2057 -1.9125 6.7665 28.1477 0.8328 -0.7881 -3.9086 1.4898 -0.8678 -9.7140 0.4073 -0.0040 -0.0492 0.0770 0.6506 -10.6446 -3.7991 -0.6490 -10.6456 3.9616 -9.4637 15.2021 -4.0147 -59.7104 11.6593 -7.5369 0.8903 -0.7366 -96.9798 12.6502 23.5642 19.1794 -15.3532 10.9447 16.1214 -59.7221 1.6121 1.9450 23.9433 14.5130 14.2315 39.0385 0.7165 -1.9973 0.4990 1.7714 85.7710 -6.9531 42.7910 -47.6787 15.3386 7.2534 -15.2084 50.0942 -3.4365 -5.1817 9.3140 -13.7473 4.1751 -0.2037 12.6279 -0.4278 -13.9578 -4.8677 -11.3293 1.6566 -1.2500 -2.0618 -10.8166 -16.4979 -18.1632 0.2400 17.9023 0.5371 11.5347 -7.7475 9.0565 -1.4318 -0.6673 1.0191
